<?xml version="1.0" standalone="no"?>
<!DOCTYPE svg PUBLIC "-//W3C//DTD SVG 20010904//EN"
 "http://www.w3.org/TR/2001/REC-SVG-20010904/DTD/svg10.dtd">
<svg version="1.0" xmlns="http://www.w3.org/2000/svg"
 width="300.000000pt" height="300.000000pt" viewBox="0 0 300.000000 300.000000"
 preserveAspectRatio="xMidYMid meet">
<metadata>
Created by potrace 1.10, written by Peter Selinger 2001-2011
</metadata>
<g transform="translate(0.000000,300.000000) scale(0.050000,-0.050000)"
fill="#999999" stroke="none">
<path d="M3355 5828 c-6 -6 10 -42 35 -80 50 -73 80 -236 63 -338 -5 -33 -16
-109 -24 -170 -38 -303 -289 -620 -491 -620 -60 0 -55 5 58 61 245 123 368
375 397 819 10 152 -20 227 -93 237 -48 7 -49 6 -15 -32 117 -129 -26 -761
-207 -914 -97 -81 -106 -59 -19 50 120 152 163 264 174 449 12 219 -46 500
-104 500 -25 0 -36 -11 -32 -30 4 -16 24 -97 45 -180 79 -315 18 -558 -198
-797 -76 -84 -76 -78 9 97 128 266 188 677 109 748 -54 49 -70 33 -46 -51 61
-223 -111 -780 -276 -892 -94 -64 -93 -49 7 99 195 292 248 740 102 877 -76
71 -100 24 -35 -67 120 -169 13 -649 -203 -904 -79 -94 -118 -83 -45 14 189
253 266 862 115 912 -21 7 -23 -4 -9 -48 83 -267 -58 -815 -248 -963 -77 -60
-80 -18 -6 80 210 279 248 906 58 966 -55 18 -64 0 -29 -54 133 -210 105 -646
-55 -847 -29 -37 -29 -32 -1 50 80 233 42 636 -73 778 -58 71 -71 34 -22 -64
137 -274 93 -743 -86 -928 -93 -96 -95 -83 -13 77 130 254 89 646 -88 834 -75
80 -94 32 -28 -72 177 -279 189 -647 26 -837 -52 -60 -52 -59 5 92 91 242 0
614 -193 789 -109 98 -141 69 -43 -37 245 -266 276 -737 62 -964 -56 -60 -70
-49 -33 25 88 176 82 491 -12 696 -51 111 -275 351 -327 351 -54 0 -22 -53
111 -180 246 -236 314 -626 158 -905 -52 -92 -79 -98 -52 -10 78 248 63 411
-56 639 -70 133 -201 265 -276 279 -65 12 -51 -32 27 -86 230 -159 336 -494
250 -794 -63 -217 -140 -234 -83 -18 78 300 -57 679 -306 856 -117 83 -114 13
4 -105 262 -261 336 -585 204 -886 -43 -97 -60 -47 -30 86 24 109 1 218 -86
394 -81 163 -309 426 -349 401 -19 -12 -11 -31 32 -78 358 -388 458 -828 227
-993 l-60 -42 30 86 c81 229 33 505 -130 749 -111 167 -168 217 -200 178 -21
-25 -16 -38 32 -78 247 -210 353 -722 198 -959 -50 -76 -54 -61 -17 66 66 226
-146 814 -316 877 -43 16 -12 -68 50 -137 226 -250 286 -812 102 -956 -27 -21
-43 -44 -36 -51 7 -7 2 -13 -11 -13 -32 0 -30 8 26 90 146 215 99 550 -124
886 -53 80 -76 100 -95 84 -21 -17 -4 -57 79 -189 103 -164 114 -196 151 -437
16 -111 3 -190 -55 -314 -7 -16 -19 87 -26 230 -10 232 -18 273 -69 380 -103
212 -132 253 -161 229 -20 -17 -7 -58 68 -201 l93 -181 7 -243 c7 -284 -46
-448 -187 -577 -111 -101 -149 -119 -102 -47 231 352 259 661 98 1086 -29 77
-36 83 -63 56 -27 -27 -26 -38 3 -106 33 -76 65 -201 105 -416 12 -66 -32
-283 -70 -343 -18 -27 -21 -28 -14 -4 62 203 -15 857 -92 780 -17 -17 -17 -39
2 -91 73 -204 68 -608 -10 -828 -45 -126 -52 -92 -17 88 36 188 38 371 7 578
-23 159 -71 204 -62 58 2 -43 10 -164 17 -268 26 -395 -103 -771 -298 -873
-64 -33 -53 16 16 73 149 124 271 735 190 950 -20 51 -59 -36 -61 -136 -1 -48
-5 -55 -16 -27 -26 66 -63 -55 -64 -213 -1 -79 -10 -162 -19 -184 -11 -25 -13
17 -6 110 6 83 5 144 -3 136 -44 -40 -190 -722 -191 -889 0 -75 33 -69 246 38
131 66 174 63 65 -4 -39 -25 -71 -50 -71 -58 0 -7 -54 -34 -120 -60 l-120 -46
0 -101 c0 -99 1 -100 55 -88 52 12 53 11 16 -18 -21 -16 -46 -30 -55 -30 -9 0
-16 -27 -16 -60 0 -33 8 -60 18 -60 10 0 14 -17 8 -38 -8 -31 29 -18 200 68
189 94 481 190 505 165 5 -5 -74 -43 -176 -85 -284 -116 -535 -234 -535 -252
0 -40 44 -28 221 59 269 132 389 183 431 183 20 0 -108 -71 -285 -158 -177
-87 -328 -168 -336 -180 -31 -51 15 -60 75 -14 91 68 685 367 761 382 35 7 81
18 103 24 88 23 -5 -31 -110 -64 -159 -51 -400 -172 -440 -220 -14 -17 -35
-30 -47 -31 -65 -3 -303 -191 -309 -244 -8 -65 16 -70 66 -15 20 22 41 36 46
31 5 -5 -16 -30 -47 -57 -33 -28 -49 -57 -41 -72 11 -16 37 -4 89 43 421 380
1579 774 1923 654 34 -12 7 -15 -80 -8 -483 39 -1364 -301 -1808 -696 l-98
-87 27 -74 c33 -90 33 -90 130 -7 124 105 648 439 769 491 148 62 486 183 493
175 3 -3 -91 -44 -209 -92 -404 -163 -1124 -621 -1124 -716 0 -39 17 -31 137
65 303 240 576 430 618 430 8 0 -22 -24 -65 -54 -272 -182 -664 -541 -629
-574 16 -16 39 -1 83 54 329 408 1026 808 1606 923 121 24 -1 -25 -170 -68
-433 -110 -1107 -507 -1307 -769 -29 -38 -64 -81 -78 -96 -94 -102 -97 -109
-73 -163 31 -67 39 -66 88 9 75 115 846 698 923 698 6 0 160 71 344 158 323
153 376 171 858 282 115 27 265 26 265 -2 0 -14 -19 -18 -48 -10 -102 25 -608
-120 -942 -272 -680 -308 -878 -430 -1220 -752 -183 -172 -218 -215 -199 -246
9 -14 42 8 87 59 142 160 435 408 609 516 203 126 254 135 67 13 -233 -154
-722 -642 -700 -699 16 -42 32 -33 85 48 232 352 919 860 1435 1062 53 21 144
57 202 80 59 24 101 35 95 25 -6 -11 -45 -30 -86 -44 -183 -60 -666 -340 -917
-530 -302 -230 -748 -736 -695 -789 14 -14 38 6 77 65 109 166 547 636 592
636 9 0 -53 -70 -138 -155 -145 -146 -451 -527 -475 -592 -27 -68 31 -46 82
32 288 440 704 822 1106 1016 181 87 254 96 84 10 -491 -249 -1293 -1077
-1172 -1210 36 -40 37 -39 103 54 263 378 435 575 666 760 243 196 711 473
955 566 l55 21 -53 -49 c-30 -28 -74 -56 -99 -64 -25 -7 -59 -25 -76 -38 -16
-14 -84 -55 -150 -92 -131 -72 -294 -192 -404 -294 -39 -36 -76 -65 -84 -65
-37 0 -421 -402 -545 -570 -121 -165 -237 -345 -237 -370 0 -47 36 -11 120
124 49 78 99 153 110 164 11 12 47 58 80 102 200 268 653 667 1009 889 188
117 421 248 421 235 0 -5 -83 -57 -185 -115 -187 -107 -480 -301 -530 -351
-15 -15 -80 -68 -145 -118 -295 -227 -856 -915 -809 -991 16 -26 49 -24 49 3
0 77 339 523 584 768 99 99 -9 -47 -163 -220 -88 -99 -197 -243 -243 -320 -46
-77 -105 -173 -130 -213 -42 -66 -44 -97 -7 -97 8 0 53 77 101 171 52 101 153
246 248 357 88 103 205 241 260 307 55 66 136 143 180 172 44 28 188 126 320
218 223 155 306 206 555 342 108 59 454 181 470 165 5 -6 -16 -21 -47 -34 -32
-14 -152 -69 -268 -123 -115 -55 -246 -113 -290 -130 -44 -18 -104 -48 -133
-68 -29 -20 -62 -37 -72 -37 -11 0 -59 -34 -107 -75 -48 -42 -119 -100 -158
-129 -38 -29 -119 -99 -180 -155 -60 -57 -156 -143 -212 -192 -57 -49 -138
-140 -180 -204 -43 -63 -88 -124 -101 -135 -66 -59 -241 -353 -276 -465 -30
-99 34 -39 90 83 64 142 444 664 520 715 27 18 148 120 269 227 242 213 360
295 538 377 157 71 159 58 7 -40 -400 -256 -977 -826 -1117 -1103 -14 -30 -43
-78 -62 -107 -20 -29 -36 -68 -36 -85 0 -71 54 -24 130 112 352 633 1119 1265
1885 1553 154 58 128 21 -40 -57 -313 -145 -413 -197 -480 -247 -38 -29 -75
-53 -83 -53 -17 0 -231 -161 -385 -291 -326 -274 -661 -643 -769 -847 -32 -61
-90 -161 -129 -222 -73 -117 -95 -207 -39 -160 17 14 30 35 30 47 0 13 28 64
61 113 34 50 84 135 113 190 184 359 1121 1212 1426 1299 30 9 5 -16 -60 -60
-153 -105 -516 -409 -599 -502 -37 -42 -141 -158 -230 -257 -89 -99 -195 -222
-237 -274 -83 -105 -294 -506 -294 -561 0 -65 38 -36 63 48 14 47 40 87 59 92
19 5 73 64 120 132 294 423 861 1005 1268 1299 166 120 506 316 482 278 -7
-12 -53 -42 -103 -67 -245 -122 -649 -484 -1024 -918 -41 -48 -153 -172 -249
-275 -164 -177 -270 -344 -363 -569 -60 -145 15 -79 87 77 94 203 153 290 305
446 70 73 182 200 249 282 189 232 629 667 769 761 127 84 126 83 -107 -153
-640 -649 -931 -1004 -1053 -1281 -81 -186 -96 -247 -58 -247 19 0 35 28 42
75 25 146 247 503 456 730 l78 85 -66 -105 c-242 -389 -396 -690 -368 -719 18
-17 13 -25 151 247 288 567 806 1201 1206 1476 58 40 174 122 256 182 269 195
300 193 70 -5 -207 -178 -403 -372 -592 -586 -92 -104 -182 -203 -199 -220
-149 -147 -417 -557 -477 -730 -34 -95 -99 -330 -121 -435 -11 -55 -9 -75 9
-75 14 0 30 29 35 65 12 81 133 478 154 505 9 11 45 74 81 140 82 151 211 333
317 450 l83 90 -93 -200 c-230 -499 -359 -919 -309 -1005 17 -28 21 -29 23 -5
18 256 326 1055 491 1274 26 35 48 69 48 75 0 40 644 691 684 691 25 0 -80
-113 -331 -357 -273 -265 -758 -1265 -820 -1689 -17 -120 32 -80 58 47 32 151
78 297 162 515 67 174 109 242 69 112 -10 -32 -37 -143 -61 -248 -24 -104 -61
-264 -82 -354 -45 -192 -52 -354 -14 -341 14 5 23 31 20 58 -6 56 3 107 101
547 93 418 135 505 500 1050 174 261 723 920 765 920 5 0 -23 -43 -62 -95 -39
-52 -114 -153 -165 -223 -52 -70 -159 -210 -238 -310 -377 -475 -565 -928
-668 -1607 -20 -128 -20 -171 -2 -189 19 -19 24 -10 24 37 0 509 294 1233 728
1791 100 129 248 326 328 437 81 112 151 199 156 194 17 -18 -51 -147 -135
-257 -106 -136 -368 -485 -427 -568 -153 -214 -397 -678 -480 -913 -94 -265
-182 -811 -128 -793 19 6 32 58 40 158 48 583 354 1243 889 1919 65 82 135
172 154 200 142 198 -123 -248 -359 -605 -403 -610 -552 -1012 -568 -1536 -7
-254 33 -216 48 45 26 451 171 874 437 1275 178 267 219 294 83 54 -168 -297
-241 -510 -327 -954 -40 -203 -51 -571 -19 -620 11 -16 20 -25 20 -20 0 6 4
127 8 270 7 268 67 596 157 860 47 140 675 1417 689 1403 13 -13 -65 -235
-135 -383 -150 -317 -300 -651 -338 -750 -24 -60 -55 -137 -70 -170 -15 -33
-33 -91 -41 -130 -7 -38 -31 -128 -52 -199 -61 -202 -101 -492 -96 -696 8
-265 41 -219 48 66 9 363 83 689 257 1139 94 244 179 420 163 338 -6 -34 -39
-128 -72 -210 -67 -162 -183 -502 -216 -628 -65 -253 -92 -913 -35 -848 4 4
14 130 21 278 20 414 31 495 96 700 76 240 175 504 200 530 12 13 14 9 7 -10
-102 -274 -226 -1420 -154 -1420 9 0 22 124 29 275 21 476 121 1047 242 1385
125 352 118 337 132 281 11 -48 -23 -297 -46 -334 -58 -94 -266 -1339 -244
-1465 24 -144 50 -88 50 108 0 111 16 268 39 375 21 102 72 361 112 575 41
215 84 399 94 410 24 25 8 -321 -27 -610 -28 -222 -37 -767 -14 -790 35 -35
45 21 36 192 -5 102 -1 313 11 467 l20 281 14 -210 c8 -115 20 -311 27 -435
12 -201 26 -257 55 -210 4 8 1 101 -7 205 -22 260 -40 679 -28 630 6 -22 36
-130 67 -240 31 -110 69 -261 83 -335 16 -87 32 -129 45 -116 26 26 -13 255
-77 446 -101 299 -155 700 -110 805 13 31 18 21 19 -45 4 -268 231 -1163 282
-1112 13 13 3 64 -29 149 -42 111 -124 429 -191 738 -29 133 -48 292 -33 278
7 -6 18 -51 25 -100 6 -48 52 -200 101 -338 49 -137 116 -331 151 -430 71
-209 69 -204 98 -175 15 15 17 32 4 49 -26 36 -73 177 -62 188 5 4 25 -30 46
-77 46 -106 42 -101 67 -86 13 8 -4 66 -47 157 -124 264 -256 676 -289 904
-29 199 -49 503 -32 486 8 -7 17 -52 20 -100 22 -327 389 -1385 457 -1317 15
15 4 56 -37 136 -79 157 -122 269 -178 465 -15 50 -33 108 -41 130 -8 22 38
-63 103 -190 211 -415 229 -443 259 -417 24 19 23 29 -3 65 -17 23 -36 56 -44
72 -7 17 -42 76 -79 131 -36 56 -80 137 -98 180 -18 44 -50 116 -71 162 -22
45 -44 99 -49 120 -5 20 -32 118 -60 217 -29 99 -67 241 -84 316 -25 110 -38
135 -65 128 -18 -5 -33 3 -33 17 0 14 12 21 26 15 18 -7 28 8 29 47 2 40 6 45
12 19 59 -230 186 -554 290 -740 163 -293 336 -554 358 -541 23 14 -25 107
-135 262 -48 67 -87 131 -87 142 0 11 -17 41 -37 67 -50 63 -212 384 -253 498
-69 195 -112 344 -103 354 6 5 33 -61 60 -147 106 -333 239 -550 524 -852 140
-149 140 -148 157 -104 7 20 -28 70 -104 145 -146 144 -334 394 -431 571 -92
169 -84 191 17 49 42 -58 88 -119 103 -136 15 -16 85 -102 155 -190 172 -216
288 -322 317 -293 17 17 -13 57 -116 158 -300 292 -571 680 -646 925 -68 220
-69 226 -45 211 12 -7 22 -26 22 -42 0 -16 8 -45 19 -64 10 -19 49 -107 86
-195 140 -334 705 -953 748 -820 4 11 -27 43 -67 70 -279 188 -744 797 -703
920 5 13 21 -2 37 -33 194 -379 780 -980 780 -799 0 14 -43 56 -95 93 -143
103 -468 433 -558 569 -109 164 -213 350 -202 362 5 5 30 -31 56 -80 26 -49
56 -84 66 -77 11 6 14 2 7 -9 -53 -86 647 -716 756 -679 49 16 9 58 -146 152
-197 119 -367 254 -464 368 -77 90 -65 85 106 -40 195 -143 515 -274 560 -229
14 14 12 24 -8 31 -394 139 -478 190 -723 439 -171 173 -275 322 -275 394 0 9
110 -94 245 -229 305 -306 718 -546 776 -451 22 36 8 46 -101 76 -227 62 -633
343 -800 553 -41 51 73 -27 129 -89 21 -24 70 -63 110 -87 39 -23 76 -48 81
-55 43 -51 460 -180 582 -180 73 0 -2 56 -103 77 -316 65 -455 134 -702 347
-62 53 -118 87 -124 76 -5 -12 -7 -10 -4 5 3 14 -14 48 -39 75 -63 70 -118
160 -98 160 9 0 44 -30 77 -67 220 -241 562 -428 903 -491 85 -16 90 -15 84
25 -5 33 -22 44 -76 49 -97 8 -376 96 -460 146 -70 40 -64 39 90 -12 85 -28
450 -50 450 -26 0 31 -58 44 -241 57 -218 15 -396 89 -649 270 -150 107 -163
142 -18 50 53 -34 104 -61 114 -61 10 0 42 -16 71 -36 116 -80 392 -152 525
-137 48 6 104 11 123 12 19 0 35 15 35 31 0 25 -19 28 -108 18 -158 -19 -383
38 -611 154 -212 108 -187 133 38 37 223 -95 641 -97 641 -4 0 24 -16 27 -75
16 -246 -45 -602 12 -802 128 -49 29 -27 25 117 -21 209 -66 742 -40 700 34
-11 21 -34 20 -240 -11 -216 -32 -456 12 -675 123 -56 29 -59 63 -4 46 23 -8
79 -16 125 -19 46 -3 120 -15 164 -28 152 -41 670 80 545 128 -16 6 -95 -7
-177 -29 -159 -43 -223 -51 -348 -43 -73 4 -67 7 60 32 162 32 430 125 430
150 0 37 -43 38 -114 3 -155 -77 -320 -108 -511 -97 -221 13 -253 33 -53 33
240 1 488 81 576 187 51 62 -19 53 -117 -15 -159 -109 -665 -186 -713 -109
-10 16 2 19 38 10 179 -45 850 205 737 275 -9 6 -83 -25 -165 -69 -210 -111
-627 -223 -586 -156 6 10 31 17 56 17 204 0 660 288 590 372 -18 22 -40 9
-115 -71 -165 -175 -763 -380 -763 -261 0 11 21 20 47 20 185 0 713 335 713
452 0 41 -32 34 -74 -17 -171 -211 -573 -414 -725 -365 -65 20 -48 42 54 65
209 49 523 276 584 422 47 114 -5 120 -73 9 -91 -147 -328 -313 -551 -385
-127 -41 -129 -12 -4 64 194 118 386 338 444 508 41 119 -24 96 -75 -26 -89
-216 -420 -500 -604 -520 l-86 -8 123 61 c228 113 484 434 494 617 5 94 -32
77 -69 -32 -77 -226 -257 -439 -462 -545 -149 -78 -196 -68 -64 13 229 142
349 318 398 587 l28 150 -53 48 -53 47 -24 -127 c-42 -226 -165 -443 -318
-562 l-59 -46 54 71 c208 274 284 692 139 767 l-54 28 0 -155 c0 -329 -432
-881 -689 -881 -44 0 -18 33 44 56 94 34 335 224 373 294 18 33 48 83 67 110
140 210 94 807 -51 662 -16 -16 -16 -22 0 -22 13 0 32 -29 43 -65 108 -348
-54 -711 -417 -932 -119 -73 -127 -48 -16 50 143 125 262 271 339 416 101 190
105 511 6 511 -34 0 -39 -32 -6 -52 41 -25 8 -308 -50 -421 -91 -180 -374
-507 -439 -507 -10 0 26 40 80 88 166 150 265 378 266 612 0 218 -62 372 -133
329 -44 -27 -61 -73 -22 -58 49 19 85 -105 85 -291 0 -253 -109 -467 -325
-637 -109 -86 -108 -64 5 69 199 232 342 688 246 784 -40 40 -61 27 -47 -28
56 -224 -190 -752 -415 -889 -96 -58 -132 -47 -48 16 245 186 402 691 313
1010 -27 97 -109 178 -144 143z m996 -602 c-50 -200 -228 -456 -371 -534 -135
-73 -142 -52 -16 55 164 139 233 226 318 398 71 145 90 167 69 81z m189 -140
c-101 -229 -451 -542 -542 -484 -18 11 -20 17 -4 18 153 2 448 299 547 550 13
33 28 49 33 36 5 -13 -10 -67 -34 -120z m-900 -606 c606 -43 681 -58 795 -156
82 -70 83 -95 2 -52 -162 83 -939 163 -1386 141 -658 -32 -1226 -176 -1543
-393 -54 -37 -152 -102 -218 -145 -196 -129 -220 -148 -220 -177 0 -15 -14
-28 -31 -28 -41 -1 -141 -81 -123 -99 8 -8 4 -11 -8 -8 -36 11 -207 -121 -196
-151 11 -27 -184 -212 -222 -212 -11 1 30 48 91 105 62 58 95 92 75 77 -20
-16 -41 -24 -47 -18 -14 14 144 151 431 375 333 260 335 261 355 261 11 0 41
17 68 38 94 74 369 198 623 281 229 74 344 104 624 160 111 22 630 23 930 1z
m-1493 -74 c13 -13 -270 -125 -317 -125 -33 -1 148 97 217 117 83 24 84 24
100 8z m82 -143 c-10 -9 -88 -36 -173 -60 -84 -24 -170 -48 -190 -55 -30 -9
-29 -7 4 15 22 14 112 45 200 70 191 53 183 51 159 30z m889 -177 c-21 -96
-38 -199 -38 -229 0 -30 -10 -61 -23 -69 -16 -10 -19 6 -11 54 7 37 18 145 26
238 12 156 33 212 70 189 8 -5 -3 -87 -24 -183z m259 172 c77 -27 81 -1 -37
-226 -55 -105 -100 -195 -100 -201 0 -32 37 -4 58 44 39 88 185 305 204 305
38 0 14 -48 -104 -206 -68 -90 -127 -176 -133 -191 -9 -22 -13 -22 -27 0 -13
21 -17 19 -18 -8 0 -37 -30 -47 -49 -16 -7 10 24 109 69 220 74 187 104 315
63 270 -10 -10 -53 -120 -95 -244 -43 -124 -85 -225 -93 -225 -21 0 -19 82 3
152 10 32 38 123 61 203 46 159 64 170 198 123z m473 -8 c44 -6 170 -18 281
-27 254 -21 352 -73 487 -257 166 -225 197 -405 82 -473 -61 -36 -101 -147
-63 -171 12 -8 21 -36 19 -63 -2 -27 4 -82 12 -123 46 -216 -330 -388 -943
-432 -231 -17 -229 -17 -140 28 428 215 509 1153 126 1459 -88 70 -90 97 -6
81 36 -6 101 -17 145 -22z m-933 -115 c1 -69 11 -206 23 -305 24 -199 20 -350
-7 -280 -43 108 -54 121 -44 50 10 -65 8 -67 -19 -31 -17 21 -30 49 -30 62 0
41 -80 101 -98 72 -18 -29 -40 -8 -81 77 -22 44 -19 43 27 -10 80 -94 61 -42
-51 140 -60 99 -97 181 -90 199 18 46 43 38 68 -24 l23 -55 -10 63 c-6 35 -2
69 9 75 11 7 25 -22 32 -63 17 -95 88 -305 90 -264 0 18 -13 79 -30 137 -17
57 -29 133 -25 167 7 77 56 100 56 27 0 -69 35 -67 46 3 4 30 10 1 12 -65 3
-66 17 -174 33 -240 l29 -120 -10 180 c-6 99 -15 205 -21 236 -12 64 1 94 41
94 20 0 27 -33 27 -125z m121 10 c-8 -391 -78 -548 -78 -175 0 136 7 208 20
200 11 -7 20 2 20 20 0 18 -9 27 -20 20 -11 -7 -20 2 -20 19 0 18 17 31 40 31
36 0 40 -13 38 -115z m-638 63 c0 -6 -53 -62 -117 -125 -346 -335 -420 -661
-233 -1024 26 -49 231 -212 310 -246 49 -21 -101 1 -230 34 -66 17 -228 36
-360 42 -132 6 -301 17 -375 26 -74 9 -350 16 -615 15 -264 0 -479 5 -479 10
1 6 111 87 244 180 134 94 298 215 364 270 685 570 893 695 1290 777 80 17
150 35 156 42 15 14 45 14 45 -1z m-582 -76 c-25 -23 -283 -154 -290 -146 -10
9 251 153 280 153 10 1 15 -3 10 -7z m1775 -73 c-5 -36 -271 -299 -302 -299
-6 0 53 81 132 179 137 172 183 204 170 120z m-1029 -129 c44 -88 34 -81 -60
42 -35 45 -57 89 -49 96 17 17 54 -30 109 -138z m-2208 -27 c-10 -121 -76
-363 -99 -363 -8 0 3 63 24 140 22 77 41 187 42 245 2 58 8 114 14 124 19 35
28 -32 19 -146z m2158 -8 c158 -192 224 -299 114 -185 -173 180 -268 294 -257
312 17 27 15 29 143 -127z m1188 81 c15 -28 16 -47 4 -51 -11 -3 -107 -64
-213 -134 -268 -178 -298 -137 -43 59 42 33 105 84 139 114 74 67 83 68 113
12z m-1240 -141 c131 -149 124 -149 -57 2 -94 79 -134 143 -88 143 9 0 75 -65
145 -145z m-60 -45 c75 -61 169 -129 208 -153 81 -47 87 -103 12 -114 -36 -5
-45 1 -36 25 9 22 -35 62 -160 146 -95 64 -181 121 -190 128 -17 11 -1 78 19
78 6 0 72 -50 147 -110z m1358 83 c0 -23 -193 -114 -237 -112 -18 0 201 139
221 139 9 0 16 -12 16 -27z m20 -91 c0 -18 -154 -76 -345 -131 -164 -47 -104
-3 100 74 207 77 245 86 245 57z m-1466 -66 c277 -151 283 -163 36 -79 -128
45 -161 64 -166 99 -9 56 -8 56 130 -20z m1495 -13 c-10 -10 -59 -23 -109 -29
l-90 -12 70 27 c80 32 158 40 129 14z m-1558 -92 c55 -15 126 -33 159 -38 123
-19 147 -42 60 -55 -67 -10 -58 -13 55 -15 119 -3 135 -8 135 -41 0 -21 5 -52
11 -68 11 -27 -47 -54 -141 -65 -11 -2 -33 -7 -50 -13 -303 -104 -316 -106
-294 -49 7 18 87 44 218 70 l206 42 -160 -11 c-88 -5 -196 -15 -240 -20 -164
-21 -18 30 181 63 110 19 204 39 209 44 12 12 -274 -8 -385 -27 -61 -11 -75
-7 -75 19 0 24 20 34 75 35 76 2 191 30 155 38 -11 3 -29 7 -40 9 -11 3 -58 6
-105 8 -77 3 -85 8 -85 53 0 28 3 50 6 50 4 0 51 -13 105 -29z m1589 -11 c0
-37 -13 -40 -181 -40 -116 0 -177 -7 -169 -20 7 -11 60 -20 119 -20 165 0 231
-18 231 -65 0 -28 -9 -36 -33 -27 -17 7 -125 18 -240 25 l-207 13 4 58 c5 61
5 61 186 94 189 34 290 27 290 -18z m-560 -49 c0 -19 -187 -151 -213 -151 -22
0 -23 8 -3 39 13 21 31 34 40 28 9 -5 46 13 81 41 61 49 95 64 95 43z m1560
-140 c0 -68 -47 -173 -86 -192 -42 -20 -43 -20 -5 10 38 30 37 31 -10 32 l-49
0 50 29 50 29 -50 3 c-35 2 -39 5 -15 12 19 5 35 18 35 29 0 11 -18 14 -40 7
-59 -19 -50 30 15 83 56 45 105 26 105 -42z m-3911 53 c-118 -102 -231 -183
-199 -144 22 27 56 62 76 76 19 15 46 40 60 55 13 15 37 28 53 28 17 1 21 -6
10 -15z m1951 -33 c0 -27 8 -54 18 -60 40 -24 62 -131 28 -131 -18 0 -27 6
-20 13 8 7 3 26 -9 41 -29 35 -57 186 -34 186 9 0 17 -22 17 -49z m721 -12
c206 -25 239 -34 239 -67 0 -20 -46 -17 -205 14 -346 67 -363 94 -34 53z m-45
-69 c103 -28 204 -50 225 -50 42 0 48 -15 21 -57 -13 -21 -62 -12 -249 47
-128 41 -228 82 -222 92 15 24 14 25 225 -32z m-828 -75 c36 -67 -75 -415
-131 -415 -27 0 -5 63 76 225 92 184 88 185 -81 17 -115 -114 -157 -144 -185
-133 -31 12 -12 38 123 167 155 149 133 152 -50 8 -49 -39 -100 -79 -112 -88
-13 -10 -33 -5 -47 12 -19 24 7 50 153 149 207 142 209 142 254 58z m832 -22
c131 -47 192 -79 197 -103 8 -42 11 -43 -262 62 -123 47 -195 85 -195 103 0
33 -11 36 260 -62z m-1080 17 c0 -15 -208 -130 -237 -130 -59 0 -4 53 99 94
111 46 138 53 138 36z m846 -61 c10 -33 71 -128 135 -211 116 -153 116 -153
69 -174 -40 -18 -51 -15 -76 22 -40 62 -194 392 -194 417 0 42 48 2 66 -54z
m-46 -58 c0 -12 32 -98 71 -190 71 -170 76 -221 19 -221 -62 0 -223 441 -173
474 34 23 83 -14 83 -63z m294 -81 c93 -82 102 -97 81 -131 -34 -53 -45 -43
-275 249 -51 65 73 -10 194 -118z m1304 61 c12 -49 22 -116 22 -149 0 -33 8
-65 19 -71 10 -7 17 -30 15 -51 -5 -77 -29 -39 -53 85 -13 69 -28 144 -32 168
-7 32 -19 41 -49 33 -48 -13 -51 0 -9 43 49 48 62 38 87 -58z m-2092 -117
c-11 -167 -14 -174 -60 -174 -54 0 -56 -15 19 225 53 168 56 164 41 -51z m167
152 c62 -10 107 -156 107 -347 0 -79 -38 -36 -50 56 -33 263 -45 282 -48 79
-3 -247 -41 -245 -45 2 -3 179 -6 176 -27 -21 -9 -82 -21 -115 -42 -115 -24 0
-27 18 -19 85 7 47 17 121 23 165 8 59 5 72 -11 50 -16 -24 -20 -18 -21 27 0
47 7 55 35 43 19 -7 63 -18 98 -24z m268 -234 c62 -193 67 -225 38 -218 -24 7
-48 68 -86 223 -84 340 -61 338 48 -5z m-92 26 c23 -131 29 -208 16 -221 -13
-13 -24 7 -32 57 -6 42 -24 137 -39 211 -26 128 -25 155 6 155 8 0 30 -91 49
-202z m588 93 c8 -41 -30 -23 -127 59 l-60 51 90 -37 c50 -21 93 -53 97 -73z
m-1128 -58 c-29 -51 -60 -93 -70 -93 -21 0 -47 40 -25 40 9 1 42 37 75 80 76
103 85 91 20 -27z m-2320 -212 c-23 -22 -209 -103 -209 -91 0 12 184 108 209
109 12 1 12 -6 0 -18z m4384 -34 c-2 -18 10 -37 25 -42 17 -6 22 -1 14 12 -8
13 -6 23 5 23 10 0 23 -12 29 -27 7 -17 -2 -26 -23 -24 -61 7 -101 34 -90 63
15 39 43 35 40 -5z m-2704 -5 c-10 -10 -82 -32 -159 -49 -495 -112 -940 -324
-1423 -678 -162 -119 -179 -120 -66 -2 232 241 612 459 1056 608 317 106 648
173 592 121z m-673 -23 c-19 -11 -118 -51 -221 -88 -102 -37 -241 -95 -308
-129 -67 -34 -130 -62 -140 -62 -16 0 -82 -38 -332 -193 -8 -5 -15 -4 -15 2 0
19 259 180 420 262 201 101 730 286 596 208z m1980 -68 c6 -6 -52 -10 -128 -8
-109 2 -123 5 -68 16 73 14 178 10 196 -8z m-447 -29 c-10 -11 -55 -24 -99
-30 l-80 -11 80 28 c98 34 125 38 99 13z m260 -60 c-10 -10 -155 -63 -320
-118 -166 -55 -400 -150 -520 -212 -121 -61 -196 -93 -169 -72 188 150 1142
529 1009 402z m372 -30 c-21 -26 -43 -34 -351 -123 -231 -67 -613 -259 -809
-407 -38 -28 -112 -79 -164 -112 -52 -33 -142 -94 -201 -136 l-106 -76 90 83
c341 311 1205 759 1465 759 36 0 55 10 55 31 0 17 9 26 21 18 14 -9 15 -20 0
-37z m-1521 2 c-27 -12 -185 -84 -350 -159 -314 -144 -492 -247 -660 -384
-124 -102 -321 -252 -378 -289 -23 -15 30 44 118 130 288 284 783 578 1155
688 143 42 188 48 115 14z m780 18 c0 -5 -47 -24 -105 -42 -58 -18 -265 -110
-461 -204 -196 -93 -362 -165 -368 -158 -7 6 18 24 56 40 37 16 105 56 150 88
156 113 728 330 728 276z m1158 -59 c-4 -5 -129 -76 -278 -159 -309 -174 -510
-311 -709 -483 -224 -195 -690 -673 -762 -781 -82 -123 -252 -312 -199 -220
95 163 576 715 740 849 33 27 107 92 164 143 233 209 1007 703 1044 666 5 -4
5 -11 0 -15z m959 -180 c1 -68 7 -181 12 -253 l10 -130 -28 134 c-25 119 -38
274 -32 386 4 93 36 -20 38 -137z m166 -167 c84 -309 84 -307 29 -181 -27 63
-59 166 -72 230 -12 63 -28 133 -34 155 -6 22 -4 34 4 26 8 -8 41 -111 73
-230z m-386 79 c-13 -30 -35 -83 -50 -118 -15 -35 -27 -74 -27 -88 0 -14 -5
-20 -12 -13 -15 15 76 274 96 274 9 0 5 -25 -7 -55z m-600 -39 c-15 -18 -84
-101 -153 -185 -70 -83 -174 -227 -233 -321 -298 -478 -360 -536 -137 -130
146 267 205 347 400 538 128 127 181 169 123 98z m-2359 -122 c-73 -54 -158
-106 -158 -96 0 14 167 130 188 131 9 1 -4 -15 -30 -35z m102 -105 c-102 -87
-279 -225 -328 -256 -72 -47 111 115 248 218 145 109 188 130 80 38z"/>
</g>
</svg>
